<?xml version="1.0" encoding="utf-8"?>
<!-- Generator: Adobe Illustrator 16.0.0, SVG Export Plug-In . SVG Version: 6.00 Build 0)  -->
<!DOCTYPE svg PUBLIC "-//W3C//DTD SVG 1.1//EN" "http://www.w3.org/Graphics/SVG/1.1/DTD/svg11.dtd">
<svg version="1.1" id="Layer_1" xmlns="http://www.w3.org/2000/svg" xmlns:xlink="http://www.w3.org/1999/xlink" x="0px" y="0px"
	 width="512px" height="512px" viewBox="0 0 512 512" enable-background="new 0 0 512 512" xml:space="preserve">
<rect fill="#353535" width="512" height="512"/>
<g>
	<path fill="#BABABA" d="M312.662,57.713c22.235,0,41.848,9.926,43.583,22.057c1.734,12.132-15.044,22.058-37.282,22.058H219.38
		c-22.238,0-30.497,15.24-18.351,33.867l185.547,284.567c12.146,18.627,3.889,33.866-18.349,33.866H198.447
		c-22.238,0-41.853-9.925-43.585-22.057c-1.734-12.126,15.041-22.052,37.279-22.052h100.156c22.238,0,30.478-15.23,18.312-33.843
		L124.568,91.556c-12.167-18.612-3.927-33.843,18.311-33.843H312.662z"/>
	<g opacity="0.5">
		<path fill="#939393" d="M136.246,109.42h62.666c3.869-4.738,10.855-7.592,20.468-7.592h99.583
			c22.238,0,39.017-9.926,37.282-22.058c-0.791-5.524-5.317-10.582-12.086-14.46h-218.07c-0.108,0-0.214-0.015-0.32-0.015
			c-1.226,0-2.424,0.123-3.597,0.316c-4.816,6.224-4.398,15.554,2.396,25.946L136.246,109.42z"/>
	</g>
	<path fill="#BABABA" d="M336.028,400.982c16.536,14.871,11.871,27.037-10.366,27.037H189.467
		c-22.235,0-26.903-12.166-10.369-27.037l48.403-43.527c16.534-14.869,43.59-14.869,60.124,0L336.028,400.982z"/>
	<path fill="#BABABA" d="M204.682,163.21c-12.146-18.625-3.89-33.867,18.349-33.867h67.587c22.238,0,30.495,15.241,18.352,33.867
		l-30.063,46.108c-12.144,18.627-32.02,18.627-44.164,0L204.682,163.21z"/>
	<g opacity="0.5">
		<path fill="#939393" d="M381.659,432.185c0-12.21-9.9-22.11-22.112-22.11c-0.125,0-0.246,0.015-0.372,0.015v-0.069h-66.878
			h-87.844h-12.313c-22.238,0-39.013,9.926-37.279,22.052c1.732,12.132,21.347,22.057,43.585,22.057h163.747
			C373.156,452.815,381.659,443.502,381.659,432.185z"/>
		<path fill="#939393" d="M124.568,91.556l6.711,10.272h88.101h57.989h41.594c22.238,0,39.017-9.926,37.282-22.058
			c-1.735-12.131-21.348-22.057-43.583-22.057H142.879C120.641,57.713,112.402,72.944,124.568,91.556z"/>
		<path opacity="0.5" fill="#939393" d="M258.084,223.198c0.373-0.025,0.74-0.104,1.113-0.146l53.938-82.727
			c-2.026-4.521-6.21-7.912-12.305-9.65h-2.336c-0.778,1.644-1.662,3.313-2.776,5.02l-71.062,108.987l6.49,9.926l17.229,26.359
			l23.716-36.285l-13.498-20.703v-0.002L258.084,223.198z"/>
	</g>
	<path fill="#FFFFFF" d="M385.501,91.556c12.166-18.612,3.925-33.843-18.312-33.843H139.408c-0.108,0-0.211-0.015-0.317-0.015
		c-12.189,0-22.072,9.882-22.072,22.072c0,12.191,9.883,22.072,22.072,22.072c0.105,0,0.209-0.014,0.317-0.014h151.284
		c22.235,0,30.494,15.24,18.349,33.867L123.496,420.256c-12.146,18.633-3.89,33.872,18.349,33.872c0,0,230.128,0.174,231.021,0.174
		c12.214,0,22.115-9.9,22.115-22.117c0-12.21-9.901-22.11-22.115-22.11c-0.126,0-0.246,0.015-0.372,0.015v-0.069H217.772
		c-22.235,0-30.477-15.23-18.311-33.843L385.501,91.556z"/>
</g>
</svg>
